<svg xmlns="http://www.w3.org/2000/svg" xmlns:xlink="http://www.w3.org/1999/xlink" width="700" height="250" viewBox="0 0 700 250">
  <defs>
    <clipPath id="clip-Web_1920_1">
      <rect width="700" height="250"/>
    </clipPath>
  </defs>
  <g id="Web_1920_1" data-name="Web 1920 – 1" clip-path="url(#clip-Web_1920_1)">
    <rect width="700" height="250" fill="#76ac64"/>
    <g id="Group_7" data-name="Group 7" transform="translate(-46.588 -13.828)">
      <path id="logo" d="M107.523,90.335V19.658h3.834V30.776a14.536,14.536,0,0,0,1.251-1.567,19,19,0,0,1,17.328-10.753c8.741-.261,15.844,2.975,20.018,10.753a34.564,34.564,0,0,1,.834,31.684c-3.889,8.716-13.494,13.05-23.778,11.458a19.229,19.229,0,0,1-15.347-10.127V90.332Zm3.834-45.675.859,8.3c1.515,9.446,7.1,15.028,15.868,16.077a18.033,18.033,0,0,0,19.809-11.458,30.742,30.742,0,0,0-.675-25.265,17.665,17.665,0,0,0-18.61-10.283,17.2,17.2,0,0,0-15.371,12.709,87.774,87.774,0,0,0-1.88,9.918Zm121.136,9.606a20.671,20.671,0,0,1-20.2,18.269c-16.077.81-23.621-9.866-24.82-22.186A35.546,35.546,0,0,1,190.6,30.773a21.836,21.836,0,0,1,22.732-12.188,20.886,20.886,0,0,1,18.53,15.9,107.243,107.243,0,0,1,1.8,11.746H191.443c-.782,11.17,5.22,20.149,13.727,22.315,10.6,2.607,19.653-1.984,22.94-12.059.73-2.585,2.061-2.95,4.41-2.217ZM191.412,42.651h37.766c-.236-11.9-7.646-20.548-17.7-20.646-11.347-.184-19.576,8.118-20.07,20.646ZM240.3,54.526H244a14.844,14.844,0,0,0,8.716,12.789,22.787,22.787,0,0,0,19.785-.521,8.894,8.894,0,0,0,5.22-8.744,8.066,8.066,0,0,0-5.428-8.066c-4.073-1.515-8.4-2.349-12.553-3.68a92.009,92.009,0,0,1-12.633-4.619c-6.686-3.263-7.1-15.972.469-20A26.651,26.651,0,0,1,273.05,21.3a13.418,13.418,0,0,1,6.787,13.678h-3.174c0-.153-.288-.288-.288-.445-.393-10.121-8.9-13.286-18.033-12.4a23.06,23.06,0,0,0-7.83,2.374,7.821,7.821,0,0,0-4.539,7.83,7.821,7.821,0,0,0,5.22,7.361c3.987,1.463,8.219,2.4,12.344,3.548l9.967,2.607a11.777,11.777,0,0,1,8.09,10.624,12.553,12.553,0,0,1-6.759,13.05c-8.716,4.932-23.072,3.628-29.467-2.607a17.4,17.4,0,0,1-5.06-12.4Zm88.265-19.548h-3.472a7.891,7.891,0,0,0-.236-1.279,11.348,11.348,0,0,0-9.241-10.909,22.787,22.787,0,0,0-14.641.705,8.894,8.894,0,0,0-6.447,8.483,8.189,8.189,0,0,0,6.263,8.247L316.658,44.3a44.134,44.134,0,0,1,5.06,1.54,13.041,13.041,0,0,1,.675,24.3,29.043,29.043,0,0,1-23.489.236,16.285,16.285,0,0,1-9.814-15.816h3.392a19.026,19.026,0,0,0,28.97,12.111,9.323,9.323,0,0,0,5.011-8.716,8.066,8.066,0,0,0-5.508-8.014c-4.073-1.515-8.4-2.322-12.553-3.68a92.467,92.467,0,0,1-12.709-4.567c-6.526-3.211-7.048-15.816.393-19.837a26.283,26.283,0,0,1,25.891-.288,13.648,13.648,0,0,1,6.551,13.39ZM101.215,71.259A5.98,5.98,0,0,1,93.8,68.44L80.308,49.778l-1.957-2.607-15.66,21.3a5.735,5.735,0,0,1-7.048,2.766L75.818,44.169,57.048,19.714a6.24,6.24,0,0,1,7.437,2.607L78.471,41.212,92.539,22.394a5.612,5.612,0,0,1,7-2.61L92.25,29.448,82.384,42.289a2.607,2.607,0,0,0,0,3.889l18.791,25.081Zm85.658-51.806v3.68a18.923,18.923,0,0,0-20.149,19.548V71.391h-3.732V19.683h3.68v10.6c4.514-7.729,11.482-10.6,20.226-10.8ZM7.337,43.832l1.644-8.118C13.5,19.661,31.9,12.982,44.557,22.925c7.413,5.821,9.262,14.068,8.9,23.361H11.7C11.02,62.883,23,72.906,38.316,67.79a15.952,15.952,0,0,0,10.1-11.249c.81-2.607,2.147-3.055,4.594-2.3A21.192,21.192,0,0,1,42.882,69.719,24.535,24.535,0,0,1,14.3,66.067,25.721,25.721,0,0,1,7.883,50.977a10.348,10.348,0,0,0-.521-2.607q-.031-2.322-.031-4.539Zm4.41-1.122H49.513c-.236-12.031-7.83-20.567-17.957-20.646-11.274-.153-19.34,8.195-19.837,20.594Z" transform="translate(151.669 98.414)" fill="#fff"/>
      <g id="Group_6" data-name="Group 6" transform="translate(527.035 79)">
        <path id="Path_4" data-name="Path 4" d="M223.628,282.155a9.275,9.275,0,0,1-4.621-1.235l-14.71-8.709c-2.2-1.229-1.125-1.663-.4-1.914a29.7,29.7,0,0,0,6.651-3.033,1.117,1.117,0,0,1,1.1.077l11.3,6.706a1.491,1.491,0,0,0,1.365,0l44.063-25.434a1.389,1.389,0,0,0,.673-1.191V196.575a1.415,1.415,0,0,0-.682-1.213L224.317,169.95a1.355,1.355,0,0,0-1.357,0l-44.037,25.412a1.4,1.4,0,0,0-.7,1.2v50.846a1.358,1.358,0,0,0,.684,1.18l12.066,6.971c6.552,3.276,10.555-.585,10.555-4.467V200.91a1.257,1.257,0,0,1,1.279-1.268h5.581a1.262,1.262,0,0,1,1.268,1.268v50.207c0,8.735-4.765,13.754-13.048,13.754-2.548,0-4.555,0-10.158-2.757l-11.559-6.662a9.317,9.317,0,0,1-4.621-8.041V196.564a9.259,9.259,0,0,1,4.621-8.03L219,163.089a9.662,9.662,0,0,1,9.265,0l44.052,25.456a9.3,9.3,0,0,1,4.621,8.03v50.846a9.323,9.323,0,0,1-4.621,8.03L228.267,280.9a9.261,9.261,0,0,1-4.643,1.235" transform="translate(-170.273 -161.907)" fill="#fff"/>
        <path id="Path_5" data-name="Path 5" d="M233.164,243.719c-19.28,0-23.322-8.85-23.322-16.273a1.267,1.267,0,0,1,1.276-1.268h5.691a1.274,1.274,0,0,1,1.257,1.079c.86,5.8,3.419,8.724,15.077,8.724,9.287,0,13.236-2.1,13.236-7.023,0-2.835-1.125-4.941-15.552-6.353-12.066-1.191-19.522-3.849-19.522-13.5,0-8.89,7.5-14.184,20.063-14.184,14.107,0,21.1,4.9,21.982,15.419a1.284,1.284,0,0,1-.342.982,1.312,1.312,0,0,1-.938.408h-5.724a1.264,1.264,0,0,1-1.235-.993c-1.379-6.1-4.71-8.052-13.765-8.052-10.136,0-11.316,3.529-11.316,6.177,0,3.21,1.39,4.147,15.066,5.956,13.544,1.8,19.975,4.335,19.975,13.853,0,9.6-8.007,15.1-21.971,15.1" transform="translate(-166.199 -158.507)" fill="#fff"/>
      </g>
    </g>
  </g>
</svg>
